<svg xmlns="http://www.w3.org/2000/svg" width="35" height="38" viewBox="0 0 35 38" fill="none">
    <path fill-rule="evenodd" clip-rule="evenodd"
        d="M22.8676 19.6805C22.5863 18.8849 22.0652 18.1961 21.3762 17.709C20.6872 17.2218 19.8641 16.9602 19.0202 16.9602V15.9402H16.9803V16.9602C15.8982 16.9602 14.8604 17.39 14.0953 18.1552C13.3302 18.9203 12.9003 19.9581 12.9003 21.0401C12.9003 22.1222 13.3302 23.1599 14.0953 23.9251C14.8604 24.6902 15.8982 25.1201 16.9803 25.1201V29.2C16.0929 29.2 15.3371 28.6339 15.0555 27.8404C15.0138 27.7106 14.9464 27.5904 14.8574 27.4871C14.7684 27.3838 14.6595 27.2993 14.5373 27.2388C14.4151 27.1782 14.282 27.1428 14.1459 27.1346C14.0098 27.1264 13.8734 27.1456 13.7448 27.191C13.6162 27.2365 13.498 27.3072 13.3972 27.3991C13.2965 27.491 13.2151 27.6022 13.1581 27.7261C13.101 27.85 13.0694 27.984 13.0651 28.1203C13.0607 28.2566 13.0838 28.3924 13.1329 28.5197C13.4142 29.3153 13.9353 30.004 14.6243 30.4912C15.3133 30.9784 16.1364 31.24 16.9803 31.24V32.26H19.0202V31.24C20.1023 31.24 21.14 30.8102 21.9052 30.045C22.6703 29.2799 23.1002 28.2421 23.1002 27.1601C23.1002 26.078 22.6703 25.0402 21.9052 24.2751C21.14 23.51 20.1023 23.0801 19.0202 23.0801V19.0001C19.4421 19 19.8536 19.1307 20.1982 19.3742C20.5427 19.6177 20.8032 19.9621 20.9439 20.3598C21.034 20.6149 21.2217 20.8238 21.4658 20.9404C21.5867 20.9982 21.7177 21.0316 21.8515 21.0388C21.9853 21.0459 22.1191 21.0266 22.2454 20.982C22.3717 20.9374 22.488 20.8683 22.5877 20.7788C22.6873 20.6892 22.7683 20.581 22.8261 20.4601C22.8839 20.3392 22.9173 20.2082 22.9244 20.0744C22.9315 19.9407 22.9122 19.8068 22.8676 19.6805ZM16.9803 19.0001C16.4392 19.0001 15.9203 19.2151 15.5378 19.5976C15.1552 19.9802 14.9403 20.4991 14.9403 21.0401C14.9403 21.5812 15.1552 22.1 15.5378 22.4826C15.9203 22.8652 16.4392 23.0801 16.9803 23.0801V19.0001ZM19.0202 29.2C19.5613 29.2 20.0801 28.9851 20.4627 28.6025C20.8453 28.22 21.0602 27.7011 21.0602 27.1601C21.0602 26.619 20.8453 26.1001 20.4627 25.7176C20.0801 25.335 19.5613 25.1201 19.0202 25.1201V29.2Z"
        fill="black" />
    <path fill-rule="evenodd" clip-rule="evenodd"
        d="M6.9364 3.31377C9.43945 2.08876 13.5459 0.640381 18.04 0.640381C22.4402 0.640381 26.4386 2.02858 28.9284 3.23727L29.0691 3.30561C29.8198 3.67689 30.4257 4.02776 30.8521 4.31234L27.0842 9.82027C35.7704 18.7003 42.4799 37.3569 18.04 37.3569C-6.39994 37.3569 0.129 19.0389 8.8907 9.82027L5.14734 4.31234C5.436 4.12364 5.80217 3.90434 6.23873 3.67179C6.45497 3.55551 6.68752 3.43617 6.9364 3.31479V3.31377ZM24.6628 9.74683L27.6789 5.33743C24.8739 5.53938 21.5365 6.1983 18.3235 7.12852C16.0286 7.79152 13.4786 7.69054 11.1173 7.255C10.5223 7.14469 9.93136 7.01337 9.34561 6.86129L11.304 9.74479C15.5012 11.2391 20.4645 11.2391 24.6628 9.74683ZM10.1259 11.4829C15.0371 13.38 20.9398 13.38 25.8511 11.4808C27.9011 13.6419 29.616 16.0977 30.9388 18.7666C32.3178 21.5797 33.0685 24.3918 32.9461 26.8153C32.8278 29.1541 31.9077 31.1523 29.8066 32.6374C27.6167 34.1847 23.9335 35.3169 18.039 35.3169C12.1383 35.3169 8.43782 34.2041 6.22751 32.6741C4.11103 31.2074 3.18182 29.2368 3.05025 26.9296C2.91255 24.5326 3.64694 21.7348 5.02086 18.9022C6.33155 16.2013 8.16039 13.6014 10.1259 11.4829ZM8.95292 4.63465C9.76891 4.87741 10.6216 5.08855 11.4866 5.24869C13.6795 5.6526 15.8786 5.71176 17.7554 5.16811C19.9425 4.53097 22.1669 4.02987 24.4159 3.66771C22.5392 3.10263 20.3441 2.68036 18.039 2.68036C14.5251 2.68036 11.2479 3.66057 8.95292 4.63465Z"
        fill="black" />
</svg>